<?xml version="1.0" encoding="UTF-8" standalone="no"?>
<!-- Created with Inkscape (http://www.inkscape.org/) -->

<svg
   xmlns:dc="http://purl.org/dc/elements/1.1/"
   xmlns:cc="http://creativecommons.org/ns#"
   xmlns:rdf="http://www.w3.org/1999/02/22-rdf-syntax-ns#"
   xmlns:svg="http://www.w3.org/2000/svg"
   xmlns="http://www.w3.org/2000/svg"
   xmlns:xlink="http://www.w3.org/1999/xlink"
   xmlns:sodipodi="http://sodipodi.sourceforge.net/DTD/sodipodi-0.dtd"
   xmlns:inkscape="http://www.inkscape.org/namespaces/inkscape"
   width="210mm"
   height="175mm"
   viewBox="0 0 744.09449 620.07877"
   id="svg2"
   version="1.1"
   inkscape:version="0.91 r13725"
   sodipodi:docname="logo.svg">
  <defs
     id="defs4">
    <linearGradient
       id="linearGradient5643"
       inkscape:collect="always">
      <stop
         id="stop5645"
         offset="0"
         style="stop-color:#000000;stop-opacity:1;" />
      <stop
         id="stop5647"
         offset="1"
         style="stop-color:#000000;stop-opacity:0.47450981" />
    </linearGradient>
    <linearGradient
       inkscape:collect="always"
       id="linearGradient5627">
      <stop
         style="stop-color:#000000;stop-opacity:1;"
         offset="0"
         id="stop5629" />
      <stop
         style="stop-color:#000000;stop-opacity:0;"
         offset="1"
         id="stop5631" />
    </linearGradient>
    <linearGradient
       id="linearGradient5554"
       inkscape:collect="always">
      <stop
         id="stop5544"
         offset="0"
         style="stop-color:#ffd42a;stop-opacity:1" />
      <stop
         id="stop5546"
         offset="1"
         style="stop-color:#ff0000;stop-opacity:1" />
    </linearGradient>
    <radialGradient
       inkscape:collect="always"
       xlink:href="#linearGradient5554"
       id="radialGradient5572"
       cx="371.22308"
       cy="292.72586"
       fx="371.22308"
       fy="292.72586"
       r="83.042336"
       gradientTransform="matrix(1,0,0,2.6611044,4.4031894,-149.86573)"
       gradientUnits="userSpaceOnUse" />
    <radialGradient
       inkscape:collect="always"
       xlink:href="#linearGradient5554"
       id="radialGradient5580"
       cx="561.13318"
       cy="264.24176"
       fx="561.13318"
       fy="264.24176"
       r="157.3725"
       gradientTransform="matrix(1,0,0,0.85302339,4.4031894,405.98478)"
       gradientUnits="userSpaceOnUse" />
    <radialGradient
       inkscape:collect="always"
       xlink:href="#linearGradient5554"
       id="radialGradient5588"
       cx="184.30029"
       cy="264.00323"
       fx="184.30029"
       fy="264.00323"
       r="156.81757"
       gradientTransform="matrix(1,0,0,0.8584451,4.4031894,404.51837)"
       gradientUnits="userSpaceOnUse" />
    <radialGradient
       inkscape:collect="always"
       xlink:href="#linearGradient5554"
       id="radialGradient5596"
       cx="372.7211"
       cy="503.5228"
       fx="372.7211"
       fy="503.5228"
       r="173.88451"
       gradientTransform="matrix(1,0,0,0.50206178,4.4031894,617.87066)"
       gradientUnits="userSpaceOnUse" />
    <linearGradient
       inkscape:collect="always"
       xlink:href="#linearGradient5627"
       id="linearGradient5633"
       x1="394.32324"
       y1="-104.61441"
       x2="722.32324"
       y2="-104.61441"
       gradientUnits="userSpaceOnUse" />
    <linearGradient
       inkscape:collect="always"
       xlink:href="#linearGradient5627"
       id="linearGradient5641"
       x1="394.32324"
       y1="-104.61441"
       x2="722.32324"
       y2="-104.61441"
       gradientUnits="userSpaceOnUse" />
    <linearGradient
       inkscape:collect="always"
       xlink:href="#linearGradient5643"
       id="linearGradient5655"
       gradientUnits="userSpaceOnUse"
       x1="394.32324"
       y1="-104.61441"
       x2="722.32324"
       y2="-104.61441"
       gradientTransform="translate(2.1382939,8.4947168)" />
  </defs>
  <sodipodi:namedview
     id="base"
     pagecolor="#ffffff"
     bordercolor="#666666"
     borderopacity="1.0"
     inkscape:pageopacity="0.0"
     inkscape:pageshadow="2"
     inkscape:zoom="0.45421624"
     inkscape:cx="263.06831"
     inkscape:cy="471.67625"
     inkscape:document-units="px"
     inkscape:current-layer="layer2"
     showgrid="false"
     inkscape:snap-page="false"
     units="mm"
     height="296mm"
     inkscape:window-width="1366"
     inkscape:window-height="705"
     inkscape:window-x="-8"
     inkscape:window-y="-8"
     inkscape:window-maximized="1" />
  <metadata
     id="metadata7">
    <rdf:RDF>
      <cc:Work
         rdf:about="">
        <dc:format>image/svg+xml</dc:format>
        <dc:type
           rdf:resource="http://purl.org/dc/dcmitype/StillImage" />
        <dc:title></dc:title>
      </cc:Work>
    </rdf:RDF>
  </metadata>
  <g
     inkscape:label="Layer 1"
     inkscape:groupmode="layer"
     id="layer1"
     style="display:none"
     transform="translate(0,-432.28348)">
    <g
       id="g3420"
       transform="matrix(17.630469,0,0,17.630469,-11643.645,-11782.213)">
      <g
         id="g3355"
         inkscape:label="0" />
      <g
         id="g3357"
         inkscape:label="zdjecie" />
      <g
         id="g3359"
         inkscape:label="feniks" />
      <g
         id="g3361"
         inkscape:label="q">
        <path
           id="path3367"
           d="M 678.06376,674.78022 Z"
           style="fill:#000000"
           inkscape:connector-curvature="0" />
        <path
           id="path3369"
           d="m 671.76101,681.41069 z m -0.0492,-1e-5 z"
           style="fill:#000000"
           inkscape:connector-curvature="0" />
        <path
           id="path3371"
           d="M 680.49426,690.76808 Z"
           style="fill:#000000"
           inkscape:connector-curvature="0" />
      </g>
      <g
         id="g3373"
         inkscape:label="zarys feniks">
        <path
           id="path3385"
           d="m 680.49426,690.76808 c -0.40329,0.90766 -0.80657,1.81532 -1.46542,2.53272 -0.46775,0.50931 -1.06432,0.92273 -1.71707,1.16926 -0.91261,0.34468 -1.93505,0.36314 -2.88761,0.31184 -0.97557,-0.0525 -1.87783,-0.17824 -2.81045,-0.97439 -0.12007,-0.1025 -0.24063,-0.2161 -0.29303,-0.24653 -0.14788,-0.0859 0.24713,0.49072 0.57445,0.91537 0.61549,0.7985 0.99163,1.05973 1.50457,1.36594 0.46703,0.2788 1.04746,0.59489 1.64789,0.84126 1.06607,0.43745 2.19519,0.65513 3.25829,0.41863 0.43437,-0.0966 0.85773,-0.26909 1.2708,-0.43212 0.22602,-0.0892 0.44896,-0.17559 0.63605,-0.36722 0.0111,-0.0113 0.022,-0.023 0.0307,-0.0307 0.0793,-0.0699 -0.0262,0.19347 -0.0899,0.38498 -0.0891,0.26757 -0.0967,0.39485 -0.0963,0.54392 10e-4,0.40652 0.0631,0.9751 0.17209,1.49651 0.16626,0.79541 0.44227,1.48107 0.76892,2.16551 0.1754,0.36754 0.36541,0.73473 0.55542,1.10192"
           style="fill:none;stroke:#000000;stroke-width:0.17015997;stroke-miterlimit:4;stroke-dasharray:none"
           inkscape:connector-curvature="0" />
        <path
           id="path3387"
           d="m 682.61319,690.76808 c 0.40328,0.90766 0.80656,1.81532 1.46542,2.53272 0.46775,0.50931 1.06431,0.92273 1.71706,1.16926 0.91262,0.34468 1.93506,0.36314 2.88761,0.31184 0.97557,-0.0525 1.87784,-0.17824 2.81046,-0.97439 0.12006,-0.1025 0.24063,-0.2161 0.29303,-0.24653 0.14788,-0.0859 -0.24714,0.49072 -0.57445,0.91537 -0.61549,0.7985 -0.99164,1.05973 -1.50458,1.36594 -0.46703,0.2788 -1.04746,0.59489 -1.64789,0.84126 -1.06607,0.43745 -2.19518,0.65513 -3.25828,0.41863 -0.43438,-0.0966 -0.85774,-0.26909 -1.27081,-0.43212 -0.22602,-0.0892 -0.44896,-0.17559 -0.63605,-0.36722 -0.0111,-0.0113 -0.022,-0.023 -0.0307,-0.0307 -0.0793,-0.0699 0.0261,0.19347 0.0899,0.38498 0.0891,0.26757 0.0967,0.39485 0.0963,0.54392 -10e-4,0.40652 -0.0631,0.9751 -0.1721,1.49651 -0.16626,0.79541 -0.44227,1.48107 -0.76891,2.16551 -0.17541,0.36754 -0.36542,0.73473 -0.55543,1.10192"
           style="fill:none;stroke:#000000;stroke-width:0.17015997;stroke-miterlimit:4;stroke-dasharray:none"
           inkscape:connector-curvature="0" />
        <path
           id="path3389"
           d="m 679.69222,681.68589 c -0.21729,-0.17645 -0.43458,-0.3529 -0.49334,-0.63237 -0.0229,-0.10871 -0.0217,-0.233 -0.0793,-0.30172 -0.0693,-0.0827 -0.22358,-0.0849 -0.36221,-0.0981 -0.22091,-0.0211 -0.40209,-0.07 -0.58533,-0.12241 -0.83188,-0.23767 -1.70648,-0.54475 -2.53472,-0.97204 -0.87216,-0.44996 -1.6929,-1.03322 -2.2591,-1.75168 -0.49765,-0.63147 -0.79865,-1.36737 -1.36732,-2.10793 -0.0374,-0.0487 -0.076,-0.0975 -0.11912,-0.11468 -0.0913,-0.0364 -0.20279,0.0686 -0.30863,0.16496 -0.47026,0.42788 -0.82811,0.68365 -1.25375,0.91947 -0.52585,0.29134 -1.15517,0.55221 -1.78056,0.7204 -0.72558,0.19514 -1.44587,0.2655 -2.21436,0.2508 -0.88851,-0.017 -1.84148,-0.14772 -2.55673,-0.3192 -0.38711,-0.0928 -0.70459,-0.19756 -1.30116,-0.50165 -0.47188,-0.24053 -1.11838,-0.60577 -1.00438,-0.456 0.037,0.0486 0.15421,0.15155 0.2576,0.24882 0.2747,0.25845 0.452,0.47701 0.66201,0.68356 0.48196,0.47401 1.13622,0.88469 1.83981,1.17656 1.41474,0.58688 3.02893,0.69339 4.3368,0.68873 0.20978,-7.5e-4 0.41168,-0.004 0.70059,-0.0724 0.83123,-0.19578 2.38275,-0.92496 1.9408,-0.58269 -0.0362,0.028 -0.0857,0.0632 -0.134,0.0978 -0.23946,0.17168 -0.44731,0.32851 -0.66286,0.4881 -0.32945,0.24392 -0.67691,0.49428 -1.02808,0.7253 -0.49953,0.32862 -1.00659,0.6181 -1.56178,0.87405 -0.61306,0.28263 -1.28481,0.52438 -1.84441,0.70968 -0.58134,0.1925 -1.04164,0.32407 -2.03307,0.28545 -0.72817,-0.0284 -1.74284,-0.14852 -1.50785,0 0.0686,0.0434 0.24359,0.10957 0.40381,0.17482 0.5098,0.20762 0.87001,0.40538 1.29258,0.5379 0.39366,0.12346 0.84144,0.19028 1.27903,0.25549 0.36203,0.0539 0.71709,0.10679 1.07404,0.1046 0.33203,-0.002 0.6657,-0.0517 0.99833,-0.1046 0.81849,-0.13021 1.63065,-0.28016 2.41257,-0.52964 0.61712,-0.19688 1.21541,-0.45576 1.8137,-0.71463"
           style="fill:none;stroke:#000000;stroke-width:0.17015997;stroke-miterlimit:4;stroke-dasharray:none"
           inkscape:connector-curvature="0" />
        <path
           id="path3391"
           d="m 671.76101,681.41069 c -0.10383,0.20182 -0.20766,0.40363 -0.32194,0.59984 -0.10522,0.18065 -0.2193,0.35655 -0.34684,0.52211 -0.17043,0.22124 -0.36488,0.42402 -0.5643,0.619 -0.44413,0.43424 -0.91287,0.82977 -1.43382,1.19341 -0.51557,0.35987 -1.08228,0.68852 -1.5636,0.98164 -0.30566,0.18614 -0.57687,0.35795 -1.08795,0.43697 -0.72109,0.11149 -1.91968,0.0383 -1.63857,0.22697 0.0664,0.0445 0.21519,0.10369 0.35882,0.15413 0.70326,0.24698 1.28171,0.28518 1.89121,0.28257 0.88952,-0.004 1.84516,-0.0946 2.75482,-0.4462 0.81543,-0.3152 1.59392,-0.84003 2.16648,-1.25081 0.36712,-0.26339 0.64959,-0.4799 1.13421,-1.13421 0.27659,-0.37344 0.61902,-0.88947 0.64732,-0.64732 0.004,0.031 0.002,0.0744 0,0.11711 -0.0221,0.44949 -0.10792,0.82818 -0.25495,1.20477 -0.30469,0.78038 -0.87207,1.55175 -1.34023,2.17154 -0.37156,0.4919 -0.68063,0.88833 -1.53674,1.31918 -0.99689,0.50169 -2.7355,1.05005 -2.09451,1.08379 0.061,0.003 0.14348,0.002 0.22434,0 0.52749,-0.0115 0.9845,-0.0364 1.4585,-0.12225 1.09898,-0.199 2.28932,-0.72544 3.15259,-1.25571 0.5312,-0.32629 0.93855,-0.65403 1.51231,-1.43986 0.56373,-0.7721 1.2881,-1.98643 1.28108,-1.60254 -0.002,0.11078 -0.0649,0.35466 -0.1194,0.5799 -0.1613,0.66722 -0.24818,1.17094 -0.44912,1.69537 -0.25133,0.65594 -0.68111,1.34428 -1.0871,1.90533 -0.26877,0.37143 -0.52711,0.68706 -1.08711,0.96288 -0.74459,0.36674 -2.02251,0.66308 -1.78454,0.73751 0.10364,0.0324 0.49484,0.0227 0.84099,0 0.94599,-0.0621 1.55553,-0.22188 2.23577,-0.53267 0.77863,-0.35576 1.6499,-0.90944 2.19839,-1.44506 0.45707,-0.44635 0.68999,-0.88016 1.1714,-1.85312 0.21465,-0.43382 0.47871,-0.97482 0.48875,-0.84653 0.005,0.0601 -0.0463,0.26688 -0.0907,0.44862 -0.10195,0.41673 -0.16955,0.70161 -0.26159,1.0164 -0.13737,0.46982 -0.32918,1.00625 -0.52248,1.47671 -0.17368,0.42271 -0.34856,0.79216 -0.79185,1.16358 -0.74571,0.6248 -2.25097,1.25518 -1.98362,1.29268 0.13265,0.0186 0.70167,-0.10874 1.14382,-0.26775 0.55556,-0.1998 0.9108,-0.4496 1.27831,-0.73803 0.60097,-0.47167 1.23475,-1.04666 1.70676,-1.70676 0.30513,-0.42672 0.54265,-0.88902 0.78018,-1.3513"
           style="fill:none;stroke:#000000;stroke-width:0.17015997;stroke-miterlimit:4;stroke-dasharray:none"
           inkscape:connector-curvature="0" />
        <path
           id="path3393"
           d="m 671.76101,681.41069 c 10e-4,-0.0105 0.002,-0.021 0,-0.0256 -0.005,-0.01 -0.0272,0.008 -0.0492,0.0256"
           style="fill:none;stroke:#000000;stroke-width:0.17015997;stroke-miterlimit:4;stroke-dasharray:none"
           inkscape:connector-curvature="0" />
        <path
           id="path3395"
           d="m 683.41522,681.68589 c 0.21729,-0.17645 0.43459,-0.3529 0.49335,-0.63237 0.0228,-0.10871 0.0217,-0.233 0.0793,-0.30172 0.0693,-0.0827 0.22358,-0.0849 0.36221,-0.0981 0.22092,-0.0211 0.40209,-0.07 0.58533,-0.12241 0.83188,-0.23767 1.70648,-0.54475 2.53472,-0.97204 0.87216,-0.44996 1.69291,-1.03322 2.25911,-1.75168 0.49764,-0.63147 0.79865,-1.36737 1.36731,-2.10793 0.0374,-0.0487 0.076,-0.0975 0.11912,-0.11468 0.0913,-0.0364 0.20279,0.0686 0.30863,0.16496 0.47026,0.42788 0.82811,0.68365 1.25376,0.91947 0.52584,0.29134 1.15517,0.55221 1.78055,0.7204 0.72559,0.19514 1.44587,0.2655 2.21436,0.2508 0.88852,-0.017 1.84148,-0.14772 2.55673,-0.3192 0.38711,-0.0928 0.70459,-0.19756 1.30116,-0.50165 0.47188,-0.24053 1.11838,-0.60577 1.00438,-0.456 -0.037,0.0486 -0.15421,0.15155 -0.2576,0.24882 -0.2747,0.25845 -0.452,0.47701 -0.662,0.68356 -0.48197,0.47401 -1.13623,0.88469 -1.83982,1.17656 -1.41473,0.58688 -3.02892,0.69339 -4.3368,0.68873 -0.20978,-7.5e-4 -0.41167,-0.004 -0.70059,-0.0724 -0.83122,-0.19578 -2.38274,-0.92496 -1.94079,-0.58269 0.0362,0.028 0.0857,0.0632 0.13399,0.0978 0.23947,0.17168 0.44731,0.32851 0.66286,0.4881 0.32945,0.24392 0.67691,0.49428 1.02809,0.7253 0.49953,0.32862 1.00658,0.6181 1.56178,0.87405 0.61305,0.28263 1.28481,0.52438 1.8444,0.70968 0.58135,0.1925 1.04164,0.32407 2.03308,0.28545 0.72816,-0.0284 1.74284,-0.14852 1.50784,0 -0.0686,0.0434 -0.24358,0.10957 -0.40381,0.17482 -0.50979,0.20762 -0.87001,0.40538 -1.29257,0.5379 -0.39367,0.12346 -0.84145,0.19028 -1.27903,0.25549 -0.36204,0.0539 -0.71709,0.10679 -1.07404,0.1046 -0.33204,-0.002 -0.66571,-0.0517 -0.99834,-0.1046 -0.81849,-0.13021 -1.63065,-0.28016 -2.41257,-0.52964 -0.61712,-0.19688 -1.21541,-0.45576 -1.81369,-0.71463"
           style="fill:none;stroke:#000000;stroke-width:0.17015997;stroke-miterlimit:4;stroke-dasharray:none"
           inkscape:connector-curvature="0" />
        <path
           id="path3397"
           d="m 691.34644,681.41069 c 0.10382,0.20182 0.20765,0.40363 0.32193,0.59984 0.10522,0.18065 0.21931,0.35655 0.34685,0.52211 0.17042,0.22124 0.36487,0.42402 0.56429,0.619 0.44413,0.43424 0.91287,0.82977 1.43383,1.19341 0.51556,0.35987 1.08228,0.68852 1.56359,0.98164 0.30566,0.18614 0.57688,0.35795 1.08795,0.43697 0.7211,0.11149 1.91968,0.0383 1.63858,0.22697 -0.0664,0.0445 -0.2152,0.10369 -0.35882,0.15413 -0.70327,0.24698 -1.28172,0.28518 -1.89122,0.28257 -0.88951,-0.004 -1.84516,-0.0946 -2.75482,-0.4462 -0.81543,-0.3152 -1.59391,-0.84003 -2.16648,-1.25081 -0.36712,-0.26339 -0.64958,-0.4799 -1.13421,-1.13421 -0.27659,-0.37344 -0.61902,-0.88947 -0.64732,-0.64732 -0.004,0.031 -0.002,0.0744 0,0.11711 0.0221,0.44949 0.10792,0.82818 0.25496,1.20477 0.30468,0.78038 0.87206,1.55175 1.34022,2.17154 0.37156,0.4919 0.68063,0.88833 1.53675,1.31918 0.99688,0.50169 2.7355,1.05005 2.09451,1.08379 -0.061,0.003 -0.14349,0.002 -0.22434,0 -0.5275,-0.0115 -0.98451,-0.0364 -1.4585,-0.12225 -1.09899,-0.199 -2.28933,-0.72544 -3.15259,-1.25571 -0.5312,-0.32629 -0.93856,-0.65403 -1.51232,-1.43986 -0.56373,-0.7721 -1.2881,-1.98643 -1.28108,-1.60254 0.002,0.11078 0.0649,0.35466 0.11941,0.5799 0.1613,0.66722 0.24817,1.17094 0.44911,1.69537 0.25133,0.65594 0.68112,1.34428 1.08711,1.90533 0.26876,0.37143 0.5271,0.68706 1.0871,0.96288 0.7446,0.36674 2.02252,0.66308 1.78454,0.73751 -0.10364,0.0324 -0.49484,0.0227 -0.84099,0 -0.94599,-0.0621 -1.55553,-0.22188 -2.23576,-0.53267 -0.77864,-0.35576 -1.64991,-0.90944 -2.19839,-1.44506 -0.45707,-0.44635 -0.68999,-0.88016 -1.17141,-1.85312 -0.21465,-0.43382 -0.4787,-0.97482 -0.48875,-0.84653 -0.005,0.0601 0.0463,0.26688 0.0908,0.44862 0.10194,0.41673 0.16954,0.70161 0.26158,1.0164 0.13737,0.46982 0.32919,1.00625 0.52248,1.47671 0.17369,0.42271 0.34857,0.79216 0.79185,1.16358 0.74571,0.6248 2.25097,1.25518 1.98362,1.29268 -0.13265,0.0186 -0.70167,-0.10874 -1.14382,-0.26775 -0.55556,-0.1998 -0.9108,-0.4496 -1.27831,-0.73803 -0.60097,-0.47167 -1.23475,-1.04666 -1.70676,-1.70676 -0.30513,-0.42672 -0.54265,-0.88902 -0.78017,-1.3513"
           style="fill:none;stroke:#000000;stroke-width:0.17015997;stroke-miterlimit:4;stroke-dasharray:none"
           inkscape:connector-curvature="0" />
        <path
           id="path3399"
           d="m 691.34644,681.41069 c -10e-4,-0.0105 -0.002,-0.021 0,-0.0256 0.005,-0.01 0.0272,0.008 0.0492,0.0256"
           style="fill:none;stroke:#000000;stroke-width:0.17015997;stroke-miterlimit:4;stroke-dasharray:none"
           inkscape:connector-curvature="0" />
        <path
           id="path3405"
           style="fill:none;stroke:#000000;stroke-width:0.17015997;stroke-miterlimit:4;stroke-dasharray:none"
           d="m 682.61319,690.76808 c 0.0763,0.73953 0.36704,1.47386 0.71319,2.16937 0.30755,0.61797 0.65882,1.2053 1.13027,1.66035 0.51779,0.49978 1.18053,0.84001 2.03924,0.84127 0.10621,1.5e-4 0.21541,-0.005 0.27284,0 0.27125,0.023 -0.61284,0.26708 -1.23646,0.36345 -0.79617,0.12303 -1.16782,0.005 -1.64196,-0.10552 -0.29241,-0.0684 -0.62381,-0.13412 -0.93134,-0.40279 -0.2262,-0.19762 -0.43949,-0.50501 -0.52775,-0.52775 -0.13405,-0.0345 0.0203,0.58758 0.021,1.12648 5e-4,0.39598 -0.082,0.74703 -0.16229,1.03997 -0.17762,0.648 -0.34444,1.01165 -0.61255,1.48648 -0.0392,0.0694 -0.0806,0.14127 -0.12368,0.21498 m 1.86152,-16.94848 c 0.0698,0.38722 0.13967,0.77444 0.18157,1.16841 0.14042,1.32029 -0.0329,2.71642 -0.31539,4.10828 m -3.58918,-5.27669 c -0.0698,0.38722 -0.13967,0.77444 -0.18157,1.16841 -0.14041,1.32029 0.0329,2.71642 0.3154,4.10828 m 0.66821,3.8055 c -0.0763,0.73953 -0.36705,1.47386 -0.71319,2.16937 -0.30756,0.61797 -0.65883,1.2053 -1.13028,1.66035 -0.51779,0.49978 -1.18053,0.84001 -2.03924,0.84127 -0.10621,1.5e-4 -0.21541,-0.005 -0.27284,0 -0.27125,0.023 0.61284,0.26708 1.23646,0.36345 0.79618,0.12303 1.16782,0.005 1.64197,-0.10552 0.29241,-0.0684 0.6238,-0.13412 0.93133,-0.40279 0.2262,-0.19762 0.43949,-0.50501 0.52775,-0.52775 0.13405,-0.0345 -0.0203,0.58758 -0.021,1.12648 -5e-4,0.39598 0.082,0.74703 0.1623,1.03997 0.17761,0.648 0.34443,1.01165 0.61254,1.48648 0.0392,0.0694 0.0806,0.14127 0.12368,0.21498 m 1.86148,-16.94848 c 0.0698,0.38722 0.13967,0.77444 0.18157,1.16841 0.20242,1.90326 -0.24717,3.9641 -0.73578,5.94258 -0.1248,0.50535 -0.25215,1.00533 -0.26606,1.50616 -0.004,0.15503 0.002,0.31015 0.0182,0.46504 m -2.92093,-9.08219 c -0.0698,0.38722 -0.13967,0.77444 -0.18157,1.16841 -0.20241,1.90326 0.24717,3.9641 0.73578,5.94258 0.1248,0.50535 0.25216,1.00533 0.26606,1.50616 0.004,0.15503 -0.002,0.31015 -0.0182,0.46504 m -0.80207,-9.08219 c 0.2161,-1.07384 0.53213,-2.15758 0.66112,-3.42455 0.0688,-0.67584 0.0844,-1.40381 -0.30525,-1.80409 -0.37348,-0.38368 -1.11927,-0.46629 -1.52634,-0.86392 -0.2166,-0.21158 -0.3778,-0.51234 -0.4985,-0.81311 l 0.0405,0 c 0.27982,0.16703 0.55963,0.33407 0.97028,0.48698 0.29937,0.11148 0.66827,0.21545 0.77798,0.14534 0.18239,-0.11655 -0.35147,-0.71417 -0.67845,-1.12725 -0.15801,-0.19961 -0.26772,-0.35613 -0.50503,-0.38621 -0.27099,-0.0344 -0.70836,0.0961 -0.72599,0 -0.0122,-0.0665 0.17624,-0.24126 0.35489,-0.35489 0.35199,-0.22389 0.66603,-0.21034 0.97868,-0.14169 0.46453,0.10199 0.92602,0.32561 1.34156,0.59905 0.35872,0.23605 0.6832,0.50921 1.03776,0.72919 0.50898,0.31579 1.07994,0.52197 1.67316,0.71816 0.17213,0.0569 0.34614,0.11302 0.506,0.15195 0.14564,0.0355 0.27955,0.0567 0.48133,0 0.11243,-0.0316 0.24593,-0.0874 0.26006,-0.0655 0.0146,0.0225 -0.0979,0.12773 -0.19826,0.193 -0.15747,0.10239 -0.28514,0.10652 -0.42014,0.10924 -0.29514,0.006 -0.6253,0.005 -0.94875,-0.0265 -0.29455,-0.0288 -0.58355,-0.0831 -0.85248,-0.14267 -0.25108,-0.0556 -0.48467,-0.11575 -0.75997,-0.27143 -0.0149,-0.008 -0.03,-0.0172 -0.0386,-0.0206 -0.0388,-0.0154 0.0521,0.0759 0.1259,0.15089 0.20717,0.21032 0.28059,0.29161 0.38361,0.39608 0.17676,0.17924 0.44066,0.42668 0.7203,0.61344 0.28338,0.18926 0.58293,0.3162 0.84487,0.45324 0.23653,0.12374 0.44239,0.25572 0.81112,0.30272 0.20607,0.0263 0.46301,0.026 0.48085,0.0539 0.0216,0.0337 -0.30636,0.10843 -0.56708,0.14352 -0.39953,0.0538 -0.64127,0.0144 -0.89638,0 -0.2033,-0.0115 -0.41509,-0.007 -0.70374,-0.12257 -0.39304,-0.15715 -0.92859,-0.53635 -0.8751,-0.4246 0.0236,0.0493 0.1619,0.19421 0.27284,0.3313 0.27297,0.33733 0.38033,0.62742 0.48665,0.93723 0.25823,0.75251 0.5103,1.62137 0.73917,2.45624 0.0941,0.3432 0.18424,0.68065 0.2744,1.01811"
           inkscape:connector-curvature="0"
           sodipodi:nodetypes="ccsccscsccccccsccscccsccscsccccccsscccsscccccsccccccsccssccccccccccccsccccccccccc" />
      </g>
    </g>
  </g>
  <g
     inkscape:groupmode="layer"
     id="layer2"
     inkscape:label="Layer 2"
     transform="translate(0,-432.28348)"
     style="display:inline">
    <flowRoot
       xml:space="preserve"
       id="flowRoot5603"
       style="font-style:normal;font-weight:normal;font-size:40px;line-height:125%;font-family:sans-serif;letter-spacing:0px;word-spacing:0px;fill:#000000;fill-opacity:1;stroke:none;stroke-width:1px;stroke-linecap:butt;stroke-linejoin:miter;stroke-opacity:1"
       transform="translate(-3.051758e-5,88.582678)"><flowRegion
         id="flowRegion5605"><rect
           id="rect5607"
           width="684.69592"
           height="612.04327"
           x="33.023918"
           y="149.18954" /></flowRegion><flowPara
         id="flowPara5609" /></flowRoot>    <g
       transform="matrix(2.0592068,0,0,1.8142057,-776.35789,931.3946)"
       style="font-style:normal;font-variant:normal;font-weight:normal;font-stretch:normal;font-size:180.00001526px;line-height:300%;font-family:'Sitka Subheading';-inkscape-font-specification:'Sitka Subheading, Normal';text-align:start;letter-spacing:0px;word-spacing:0px;writing-mode:lr-tb;text-anchor:start;fill:url(#linearGradient5641);fill-opacity:1;stroke:none;stroke-width:1px;stroke-linecap:butt;stroke-linejoin:miter;stroke-opacity:1"
       id="flowRoot5611">
      <path
         d="m 396.46152,-19.341908 20.22223,0 9.33333,39.77778 q 0.88889,4.000001 3.33333,6.222223 2.44445,2 6,2 l 61.11112,0 -2.88889,-7.111112 Q 482.68375,8.8803158 472.90597,-1.7863512 463.35042,-12.453019 455.12819,-22.675241 q -8.22222,-10.444446 -14.66667,-21.111113 -6.44444,-10.888889 -11.11111,-23.333335 -4.44444,-12.666667 -6.88889,-27.777784 -2.44444,-15.333327 -2.44444,-34.444437 0,-25.33334 10.44444,-48.44445 10.44445,-23.11111 28.88889,-40.66667 18.66667,-17.55555 44.44445,-28 25.77778,-10.44444 56.66667,-10.44444 20.88889,0 39.33334,4.88888 18.66667,4.66667 34.22222,13.33334 15.77778,8.66667 28,20.66667 12.44445,12 21.11112,26.22222 8.66666,14 13.11111,30 4.66667,15.77778 4.66667,32.44445 0,18.88889 -2.44445,33.999997 -2.44444,14.88889 -7.11111,27.555558 -4.66667,12.444445 -11.11111,23.333334 -6.44445,10.666668 -14.66667,21.111113 -8.22222,10.444445 -18,21.3333338 -9.55556,10.88889 -20.22222,23.3333352 l -2.88889,7.333334 61.11111,0 q 3.55556,0 6,-2 2.44445,-2.222222 3.33333,-6.222223 l 9.33334,-39.77778 20.22222,0 0,84.000005 -141.11112,0 0,-19.333334 q 14.88889,-20.88889 27.33334,-38.6666695 12.66666,-18.0000005 21.77778,-36.0000025 9.33333,-18.000001 14.44444,-37.77778 5.33334,-19.777779 5.33334,-44.444441 0,-13.33334 -1.55556,-27.55556 -1.33333,-14.22222 -5.33333,-27.77778 -3.77778,-13.77778 -10.44445,-25.77778 -6.66667,-12.22222 -17.11111,-21.33333 -10.22222,-9.33334 -24.66667,-14.66667 -14.22222,-5.55556 -33.55556,-5.55556 -18.66666,0 -32.66667,5.55556 -13.77777,5.33333 -24,14.66667 -10.22222,9.11111 -16.88889,21.33333 -6.44444,12.22222 -10.44444,26 -3.77778,13.55556 -5.33334,27.77778 -1.55555,14.22223 -1.55555,27.33334 0,24.888885 5.33333,44.666664 5.33334,19.777779 14.44445,37.77778 9.33333,18.000001 21.77778,35.7777795 12.66666,17.7777795 27.33333,38.6666695 l 0,19.333334 -141.11112,0 0,-84.000005 z"
         style="font-style:normal;font-variant:normal;font-weight:normal;font-stretch:normal;font-size:500.00003052px;line-height:50%;font-family:'Sitka Subheading';-inkscape-font-specification:'Sitka Subheading, Normal';text-align:center;writing-mode:lr-tb;text-anchor:middle;fill:url(#linearGradient5655);fill-opacity:1;stroke:none;stroke-opacity:1"
         id="path4197"
         inkscape:connector-curvature="0" />
    </g>
    <flowRoot
       xml:space="preserve"
       id="flowRoot5619"
       style="font-style:normal;font-weight:normal;font-size:40px;line-height:125%;font-family:sans-serif;letter-spacing:0px;word-spacing:0px;fill:#000000;fill-opacity:1;stroke:none;stroke-width:1px;stroke-linecap:butt;stroke-linejoin:miter;stroke-opacity:1"
       transform="translate(-3.051758e-5,88.582678)"><flowRegion
         id="flowRegion5621"><rect
           id="rect5623"
           width="46.233486"
           height="68.249435"
           x="215.75627"
           y="208.6326" /></flowRegion><flowPara
         id="flowPara5625" /></flowRoot>  </g>
  <g
     inkscape:groupmode="layer"
     id="layer3"
     inkscape:label="Layer 3"
     style="display:inline"
     transform="translate(0,-343.70078)">
    <path
       style="opacity:1;fill:url(#radialGradient5572);fill-opacity:1;stroke:#000000;stroke-width:2.14285707;stroke-linecap:round;stroke-linejoin:round;stroke-miterlimit:4;stroke-dasharray:none;stroke-dashoffset:0;stroke-opacity:1"
       d="m 372.93211,890.98553 c -4.17488,-8.43669 -8.18834,-21.08057 -9.46677,-29.82381 -0.70478,-4.82001 -0.70411,-8.04644 0.003,-15.82348 1.02488,-11.26706 0.7878,-12.74557 -2.04375,-12.74557 -1.54196,0 -2.83503,0.97431 -5.76723,4.34553 -5.67249,6.52181 -9.73673,8.88656 -19.70092,11.46286 -10.97593,2.83788 -20.35828,3.38958 -30.05894,1.76751 -3.87002,-0.64711 -7.99967,-1.44972 -9.177,-1.78356 -2.13668,-0.60589 -2.13733,-0.60773 -0.35489,-0.99968 9.2939,-2.04372 12.40644,-3.00854 16.6335,-5.15599 13.89523,-7.05913 23.49363,-18.27166 34.44338,-40.23559 10.15745,-20.37467 14.02093,-36.33602 12.46508,-51.49744 -0.38783,-3.77928 -1.84864,-11.68403 -3.24625,-17.56611 -12.31232,-51.81852 -15.08675,-70.4565 -14.38457,-96.63214 0.43522,-16.22418 1.39941,-22.66854 7.66123,-51.20539 9.16326,-41.75954 10.369,-58.98638 4.91473,-70.21831 -2.74611,-5.65505 -5.95919,-8.08887 -17.17604,-13.01041 -4.58249,-2.01063 -9.48493,-4.51741 -10.89432,-5.57063 -2.44532,-1.82736 -7.5596,-8.28884 -7.5596,-9.55095 0,-0.32936 1.93741,0.37916 4.30535,1.5745 9.95187,5.02369 21.90525,7.77949 24.12322,5.56151 2.44517,-2.44517 0.29256,-6.72836 -9.70626,-19.31313 -7.64496,-9.62216 -9.91946,-10.95109 -17.52135,-10.23725 l -5.12953,0.48167 3.53291,-2.54725 c 6.48596,-4.67643 12.04636,-4.957 23.05446,-1.16331 7.31017,2.51929 13.74658,6.192 25.19834,14.37854 13.47969,9.63625 23.50869,14.46056 43.21429,20.78764 l 6.42857,2.06409 -9.64286,-0.32881 c -10.77164,-0.3673 -21.46777,-2.32488 -28.21428,-5.1637 -6.27659,-2.64108 -7.23246,-2.77302 -7.68039,-1.06011 -0.50713,1.93925 14.27561,16.96705 21.29372,21.64672 5.96551,3.9778 24.85073,13.42934 27.00705,13.5163 1.17137,0.0472 1.0283,0.21244 -0.62038,0.71637 -2.90672,0.88845 -19.14643,-0.37687 -23.12656,-1.80192 -1.7196,-0.61569 -6.18771,-2.77456 -9.92913,-4.79748 -5.04628,-2.72845 -7.08651,-3.49894 -7.90235,-2.98432 -1.94318,1.22573 -1.65799,2.05418 2.41972,7.02892 2.2018,2.68616 5.07073,7.00363 6.37541,9.59436 2.67968,5.32113 8.43621,22.95818 14.23422,43.61124 6.17251,21.98713 7.49649,27.56743 8.98193,37.85715 4.28727,29.69805 1.90162,54.16069 -10.34432,106.07143 -5.40092,22.8946 -6.05357,26.63435 -6.06067,34.72786 -0.01,11.41042 3.08411,23.75101 9.70401,38.70371 13.38167,30.22583 29.50457,46.64654 49.91276,50.83478 3.13148,0.64265 5.78587,1.26073 5.89866,1.37352 0.11278,0.11278 -2.93147,0.81852 -6.76502,1.56831 -10.54135,2.06173 -23.32277,1.81909 -33.20925,-0.63046 -10.22884,-2.53437 -13.40998,-4.28551 -20.27084,-11.15857 -4.25622,-4.26379 -6.12064,-5.68133 -7.019,-5.3366 -1.95535,0.75034 -2.44971,3.20421 -1.79136,8.89186 1.54297,13.33039 0.55775,22.86793 -3.75831,36.38273 -1.84879,5.78909 -8.62512,20.71429 -9.40468,20.71429 -0.14082,0 -1.88639,-3.29465 -3.87903,-7.32143 z"
       id="path5152"
       inkscape:connector-curvature="0" />
    <path
       style="fill:url(#radialGradient5580);fill-opacity:1;stroke:#000000;stroke-width:2.14285707;stroke-linecap:round;stroke-linejoin:round;stroke-miterlimit:4;stroke-dasharray:none;stroke-dashoffset:0;stroke-opacity:1"
       d="m 477.79449,762.6524 c -10.88122,-3.6355 -15.08299,-5.91774 -24.99028,-13.57381 -18.85206,-14.56831 -28.89297,-26.0456 -39.25734,-44.87319 l -4.31158,-7.83229 1.4395,-7.78308 c 5.48931,-29.6795 6.18971,-52.70143 2.34063,-76.93653 l -1.22688,-7.72489 2.23782,-1.75136 c 3.01152,-2.35687 5.28038,-6.18914 6.26941,-10.58951 0.80185,-3.56756 0.87883,-3.64879 3.97962,-4.19957 19.99,-3.55072 45.86723,-12.95947 63.5191,-23.09502 11.06159,-6.35146 18.30027,-11.60144 25.81388,-18.72194 7.54022,-7.14571 11.38163,-12.21221 19.49002,-25.70571 6.98454,-11.62325 12.60326,-20.11804 14.16279,-21.41234 0.8871,-0.73622 2.18141,0.056 7.76323,4.7514 9.07697,7.63558 15.1208,11.59593 25.27008,16.55877 26.20572,12.81417 54.01188,16.76533 87.45772,12.42743 20.33446,-2.63736 30.24152,-5.31656 43.54029,-11.77474 5.65604,-2.74671 10.39904,-4.87868 10.53999,-4.73773 0.14096,0.14095 -3.08195,3.50414 -7.16202,7.47373 -22.76569,22.14932 -52.48256,32.3089 -97.98804,33.50005 -19.9376,0.52188 -21.39182,0.26858 -42.40036,-7.38549 -8.02112,-2.92235 -15.25327,-5.2177 -16.07143,-5.10078 -0.88704,0.12676 -1.57552,0.8293 -1.70541,1.74022 -0.17769,1.2461 2.20978,3.31249 12.95461,11.21241 28.25716,20.7755 42.25394,28.62997 68.36808,38.36563 24.35211,9.07877 33.81791,10.67934 55.3689,9.36239 7.37702,-0.4508 13.52514,-0.70726 13.66249,-0.56992 0.13734,0.13734 -1.44428,0.91927 -3.5147,1.73762 -2.07042,0.81836 -6.74478,2.79488 -10.38746,4.39227 -8.56905,3.7577 -14.51889,5.38838 -27.66266,7.58153 -20.7606,3.4641 -28.42041,3.16058 -56.08433,-2.22229 -19.27861,-3.75125 -33.4224,-8.21355 -52.7036,-16.62775 -10.05367,-4.38736 -10.7306,-3.41267 -4.92607,7.09292 5.43124,9.82997 9.79952,15.6554 17.40721,23.21377 13.08889,13.00407 25.67755,22.47795 47.37822,35.65558 17.59416,10.68397 21.78791,12.10858 37.85714,12.86006 4.91072,0.22965 10.05357,0.60161 11.42857,0.82658 l 2.5,0.40903 -3.92857,1.3614 c -9.0755,3.145 -17.59954,4.33472 -31.07143,4.33672 -34.65837,0.005 -54.81638,-6.7802 -85.35714,-28.73188 -8.29323,-5.96089 -14.79395,-12.62746 -23.47081,-24.06957 -6.70889,-8.84697 -8.55766,-10.36251 -10.58675,-8.67851 -0.94102,0.78097 -1.06831,2.09289 -0.7549,7.78044 0.84843,15.39731 8.47578,31.14523 26.96999,55.68393 13.23905,17.56602 19.25309,21.72021 50.24858,34.70923 l 13.47754,5.64792 -4.52004,0.21654 c -5.53121,0.26498 -17.16665,-0.85872 -24.69731,-2.38515 -8.39787,-1.70221 -25.2483,-7.51623 -34.63476,-11.95027 -23.48108,-11.09216 -33.6141,-19.54685 -47.46854,-39.60627 -11.19117,-16.20338 -16.42323,-23.31048 -17.84767,-24.2438 -1.7804,-1.16656 -3.63537,-0.64405 -4.21677,1.18778 -0.48607,1.53147 5.15937,26.58267 8.24181,36.5724 5.60112,18.15235 23.08914,45.26899 34.06497,52.82055 4.97215,3.42094 11.99657,6.61947 22.5344,10.2609 5.41186,1.87012 9.7088,3.53116 9.54876,3.69119 -0.49682,0.49683 -18.25694,-1.22526 -24.13399,-2.34012 -18.52025,-3.51323 -44.0632,-17.09425 -59.14614,-31.44763 -7.69593,-7.32367 -10.87554,-12.16122 -21.07346,-32.06184 -4.22765,-8.25 -8.01328,-15.40178 -8.41252,-15.89286 -0.39923,-0.49107 -1.4901,-0.89285 -2.42414,-0.89285 -1.37734,0 -1.69755,0.37118 -1.69455,1.96428 0.006,3.11025 6.00663,26.05325 9.48124,36.25 10.3104,30.25744 14.5095,35.46171 40.60164,50.32082 9.51395,5.41807 9.49239,6.1536 -0.0866,2.9532 z"
       id="path5154"
       inkscape:connector-curvature="0" />
    <path
       style="fill:url(#radialGradient5588);fill-opacity:1;stroke:#000000;stroke-width:2.14285707;stroke-linecap:round;stroke-linejoin:round;stroke-miterlimit:4;stroke-dasharray:none;stroke-dashoffset:0;stroke-opacity:1"
       d="m 267.79449,764.5448 c 0,-0.19008 3.61607,-2.36492 8.03571,-4.833 16.38137,-9.14786 24.07224,-15.30223 29.12962,-23.31002 5.44085,-8.61498 12.80584,-28.75089 17.73358,-48.48365 3.76968,-15.09543 3.90045,-16.75403 1.32093,-16.75403 -1.93576,0 -4.11353,3.51643 -11.94388,19.28571 -11.14905,22.4527 -16.6106,29.07016 -33.56167,40.66492 -21.46208,14.68032 -39.25093,20.94391 -63.92858,22.50974 l -6.42857,0.4079 8.57143,-3.11359 c 19.27719,-7.00245 26.21141,-10.94125 32.76324,-18.61025 5.06413,-5.92762 14.62995,-20.51813 18.89204,-28.81554 4.68794,-9.12646 7.73343,-18.35422 11.85636,-35.92451 3.55031,-15.12998 3.80398,-17.21825 2.2483,-18.50935 -2.23214,-1.85251 -5.03295,1.07622 -15.06695,15.75513 -19.60006,28.67328 -26.00872,34.58167 -50.69299,46.73573 -21.99068,10.82779 -42.07141,16.06375 -61.42857,16.01722 l -5.71429,-0.0137 17.2639,-7.39507 c 28.8764,-12.36933 33.91021,-15.92025 46.86522,-33.05943 12.41676,-16.42708 20.5991,-30.27987 24.03238,-40.6871 1.60746,-4.87267 3.62422,-15.56735 3.62422,-19.21892 0,-2.17941 -1.47972,-4.60031 -2.81184,-4.60031 -1.4546,0 -4.89973,3.69272 -10.56645,11.32582 -8.10305,10.91483 -14.35133,16.97952 -25.20623,24.46561 -27.1353,18.7139 -43.50996,24.71188 -71.90205,26.33748 -16.71209,0.95686 -27.70354,-0.0591 -39.870575,-3.68548 -5.988259,-1.78477 -5.055143,-2.60066 3.063867,-2.67894 8.291008,-0.0799 18.591648,-1.45471 24.168198,-3.2256 5.07778,-1.61249 23.05103,-11.96003 36.78799,-21.17956 14.26331,-9.57276 31.63662,-25.03724 38.75859,-34.50012 2.107,-2.79955 5.63841,-8.29849 7.84756,-12.21987 5.98053,-10.61576 5.33712,-12.55359 -2.9209,-8.7973 -21.07512,9.58634 -38.50016,14.79939 -64.13388,19.18689 -18.00805,3.08229 -25.29337,3.35393 -38.928568,1.45153 -17.665194,-2.46469 -24.7472,-4.33348 -37.857143,-9.98969 l -11.785714,-5.08488 7.142857,0.54292 c 12.139319,0.92267 30.821484,0.53744 36.557958,-0.75385 7.702604,-1.73385 19.91737,-5.79202 33.0849,-10.99193 17.82281,-7.03831 29.17211,-13.05033 44.64286,-23.64851 9.76188,-6.68734 29.30373,-21.14223 29.91103,-22.12485 0.24791,-0.40113 0.24142,-1.27481 -0.0144,-1.94152 -0.6771,-1.76447 -3.11436,-1.18666 -18.21957,4.31931 -21.04998,7.6729 -21.51797,7.75426 -41.67703,7.24468 -9.42857,-0.23834 -20.83929,-0.938 -25.35715,-1.5548 -31.864156,-4.35027 -55.79156,-14.75975 -72.751828,-31.65027 -3.674222,-3.65911 -6.537884,-6.79545 -6.363694,-6.96964 0.174191,-0.17419 4.305372,1.58264 9.180403,3.90406 13.73351,6.53972 24.314691,9.36637 44.367551,11.85234 33.296418,4.12778 59.381408,0.52115 85.365798,-11.80308 10.57795,-5.01705 18.44661,-10.07288 26.98749,-17.34019 3.53571,-3.00849 6.63949,-5.47461 6.89728,-5.48027 0.84698,-0.0186 5.75856,7.28186 13.7795,20.48153 4.34206,7.1455 9.98393,15.63665 12.5375,18.86922 12.92844,16.36611 37.13078,31.60542 67.01923,42.19949 10.24713,3.63214 21.91115,6.88737 27.408,7.64911 5.5062,0.76304 7.00135,1.80751 7.00135,4.89092 0,2.51094 1.91798,5.86582 5.42097,9.48222 l 3.12448,3.22563 -1.47232,8.56008 c -3.62423,21.07136 -2.8297,46.35857 2.34851,74.74535 l 1.51918,8.32813 -3.09368,5.95759 c -4.52534,8.71456 -8.17994,14.51795 -13.2078,20.97354 -9.04823,11.61761 -29.25903,29.11439 -40.33172,34.91577 -5.54923,2.90744 -20.02191,7.72392 -20.02191,6.66326 z"
       id="path5156"
       inkscape:connector-curvature="0" />
    <path
       style="fill:url(#radialGradient5596);fill-opacity:1;stroke:#000000;stroke-width:2.14285707;stroke-linecap:round;stroke-linejoin:round;stroke-miterlimit:4;stroke-dasharray:none;stroke-dashoffset:0;stroke-opacity:1"
       d="m 371.19164,945.63902 c -2.97351,-6.1933 -6.53675,-13.9953 -7.91831,-17.3376 -6.3469,-15.3547 -10.50774,-34.44013 -10.62865,-48.75265 -0.0578,-6.85109 0.19981,-8.81205 1.75835,-13.38079 2.78781,-8.17222 1.41149,-9.43545 -4.9745,-4.56573 -4.41205,3.36446 -22.00556,9.97658 -32.08576,12.05871 -6.77859,1.40015 -20.35554,1.37553 -28.88669,-0.0524 -14.30939,-2.39507 -34.1947,-10.39713 -51.95746,-20.90825 -9.45223,-5.59337 -14.07605,-9.0571 -19.4285,-14.55405 -4.21621,-4.33003 -13.15415,-15.48464 -12.73963,-15.89915 0.15312,-0.15313 2.32758,1.02446 4.83212,2.61686 13.09217,8.32406 27.40374,11.30436 54.24328,11.29588 21.02742,-0.007 32.62724,-2.24619 46.17431,-8.91474 15.91353,-7.83343 27.68217,-19.45017 38.0001,-37.50962 3.97485,-6.95716 3.89561,-5.48218 -0.20897,3.89018 -14.99723,34.2445 -33.70968,50.39553 -58.38784,50.39553 -3.62213,0 -5.55749,0.31051 -6.11386,0.9809 -2.18485,2.63257 1.53612,4.37972 16.42867,7.71395 11.12891,2.4916 26.01692,2.35634 36.2985,-0.32977 10.47977,-2.73789 14.3776,-4.72661 20.21649,-10.31468 4.04851,-3.87461 4.96378,-4.48108 4.60354,-3.0504 -0.24729,0.98214 -0.65447,5.48214 -0.90484,10 -0.77855,14.04889 3.04651,29.5956 11.26659,45.79239 3.94889,7.78086 4.39391,8.37182 6.17155,8.19541 1.67357,-0.16608 2.46291,-1.26555 6.24316,-8.6961 4.79908,-9.43318 8.24712,-19.30379 10.03215,-28.71873 0.92038,-4.85443 1.08806,-8.60589 0.76562,-17.12827 l -0.41286,-10.91244 3.46035,3.76959 c 4.98295,5.42826 9.89435,8.09367 19.75525,10.72115 7.77235,2.07097 9.44929,2.26736 19.57212,2.29205 11.74931,0.0287 17.66986,-0.86632 28.72148,-4.34165 5.89308,-1.85317 6.6063,-2.3868 5.95073,-4.45233 -0.3663,-1.15414 -1.44501,-1.37001 -8.43896,-1.68879 -21.65232,-0.98692 -36.79051,-12.66356 -50.79331,-39.17873 -4.11371,-7.78955 -9.01253,-18.76255 -9.00974,-20.18113 7.1e-4,-0.45626 1.57696,1.97891 3.50235,5.41149 13.67594,24.38139 32.30155,38.69882 57.56745,44.25187 8.44456,1.85598 34.20074,2.58356 46.52034,1.31414 14.96594,-1.54211 26.39281,-5.26395 35.80109,-11.66078 2.0625,-1.40232 3.75,-2.30934 3.75,-2.01559 0,1.10433 -12.19612,15.70321 -16.09745,19.2688 -5.86496,5.36025 -15.16328,11.26856 -28.20666,17.92301 -21.65339,11.04708 -34.73792,14.94586 -52.17561,15.54671 -13.30281,0.45837 -18.61743,-0.41741 -32.0751,-5.28558 -10.2894,-3.72207 -16.40234,-6.60527 -19.4608,-9.1788 -1.67592,-1.41019 -2.36077,-1.62452 -3.13573,-0.98136 -1.35722,1.12639 -1.25099,2.27836 0.80333,8.71089 1.07727,3.3732 1.77659,7.25026 1.77659,9.84957 0,11.74114 -3.17202,28.77023 -7.92858,42.56473 -2.84713,8.257 -11.68301,28.0402 -15.03228,33.6567 l -1.80705,3.0303 -5.40637,-11.2607 z"
       id="path5158"
       inkscape:connector-curvature="0" />
  </g>
</svg>
